<svg width="73" height="72" viewBox="0 0 73 72" fill="none" xmlns="http://www.w3.org/2000/svg">
<g clip-path="url(#clip0_85_339)">
<path d="M12.9271 -9.52197e-06H60.0729C61.771 -0.00160996 63.4527 0.331667 65.0218 0.980747C66.5909 1.62983 68.0166 2.58197 69.2173 3.78268C70.418 4.98339 71.3702 6.40909 72.0193 7.9782C72.6683 9.54731 73.0016 11.229 73 12.9271V58.2479C73.0016 59.946 72.6683 61.6277 72.0193 63.1968C71.3702 64.7659 70.418 66.1916 69.2173 67.3923C68.0166 68.593 66.5909 69.5452 65.0218 70.1942C63.4527 70.8433 61.771 71.1766 60.0729 71.175H12.9271C11.229 71.1766 9.54732 70.8433 7.97822 70.1942C6.40911 69.5452 4.9834 68.593 3.78269 67.3923C2.58198 66.1916 1.62984 64.7659 0.980762 63.1968C0.331682 61.6277 -0.0015947 59.946 5.73681e-06 58.2479V12.9271C-0.0015947 11.229 0.331682 9.54731 0.980762 7.9782C1.62984 6.40909 2.58198 4.98339 3.78269 3.78268C4.9834 2.58197 6.40911 1.62983 7.97822 0.980747C9.54732 0.331667 11.229 -0.00160996 12.9271 -9.52197e-06V-9.52197e-06Z" fill="#330000"/>
<path d="M35.3746 42.705H24.0596L21.7479 49.8529C21.7221 49.9832 21.6485 50.0991 21.5415 50.1779C21.4346 50.2567 21.3021 50.2927 21.17 50.2788H15.4516C15.1171 50.2788 15.0258 50.0963 15.1171 49.7313L24.9112 21.535C25.0025 21.2308 25.0937 20.8963 25.2154 20.5313C25.3378 19.8794 25.3989 19.2174 25.3979 18.5542C25.3888 18.478 25.4088 18.4012 25.4539 18.3391C25.499 18.2771 25.566 18.2344 25.6412 18.2196H33.5191C33.7625 18.2196 33.8841 18.3108 33.9146 18.4629L45.0166 49.7921C45.1079 50.1267 45.0166 50.2788 44.7125 50.2788H38.3554C38.2479 50.2891 38.1402 50.2612 38.0512 50.2001C37.9622 50.1389 37.8976 50.0483 37.8687 49.9442L35.3746 42.705ZM25.8237 36.5304H33.5496C33.3671 35.8917 33.1237 35.1313 32.85 34.3404C32.5762 33.5496 32.3025 32.6371 32.0287 31.7246C31.755 30.8121 31.4508 29.8692 31.1466 28.9263C30.8425 27.9833 30.5687 27.1013 30.3254 26.2192C30.0821 25.3371 29.8691 24.5767 29.6562 23.8467H29.5954C29.322 25.1724 28.9768 26.4822 28.5612 27.7704C28.105 29.2304 27.6487 30.7513 27.1621 32.2721C26.7362 33.8233 26.28 35.2529 25.8237 36.5304V36.5304ZM51.6475 23.4208C51.1482 23.4318 50.6517 23.3433 50.187 23.1605C49.7222 22.9777 49.2985 22.7043 48.9404 22.3563C48.2435 21.5943 47.8724 20.5899 47.9062 19.5579C47.8883 19.0551 47.9765 18.5541 48.1652 18.0877C48.3538 17.6212 48.6387 17.1998 49.0012 16.8508C49.7323 16.1598 50.7024 15.7783 51.7083 15.7863C52.8946 15.7863 53.8071 16.1513 54.4762 16.8508C55.1501 17.5884 55.5101 18.5594 55.48 19.5579C55.4985 20.0718 55.4139 20.5842 55.231 21.0649C55.0482 21.5455 54.7708 21.9846 54.4154 22.3563C54.057 22.7213 53.6245 23.0053 53.147 23.1889C52.6695 23.3726 52.1581 23.4516 51.6475 23.4208V23.4208ZM48.2408 49.8225V26.4017C48.2408 26.0975 48.3625 25.9758 48.6362 25.9758H54.6587C54.9325 25.9758 55.0541 26.1279 55.0541 26.4017V49.8225C55.0541 50.1571 54.9325 50.3092 54.6587 50.3092H48.6971C48.6331 50.3144 48.5689 50.3052 48.509 50.2822C48.4491 50.2591 48.3953 50.2228 48.3514 50.176C48.3075 50.1292 48.2748 50.0731 48.2557 50.0119C48.2365 49.9507 48.2314 49.886 48.2408 49.8225V49.8225Z" fill="#FF9A00"/>
</g>
<defs>
<clipPath id="clip0_85_339">
<rect width="73" height="71.175" fill="white"/>
</clipPath>
</defs>
</svg>
