<svg width="73" height="73" viewBox="0 0 73 73" fill="none" xmlns="http://www.w3.org/2000/svg">
<g clip-path="url(#clip0_85_327)">
<path d="M3.04163 3.13311H69.9585V68.225H3.04163V3.13311Z" fill="#1E003E"/>
<path d="M3.04163 3.13311H69.9585V68.225H3.04163V3.13311ZM0 71.2667H73.0001V0.0914841H0V71.2667ZM51.6475 34.4016C53.1987 34.4016 53.7462 34.4016 53.8983 34.3408C53.8983 34.1279 53.9591 33.9757 53.9591 33.8236C53.9591 32.1811 53.1683 29.1395 50.005 29.1395C47.0849 29.1395 45.838 31.6944 45.5337 34.4016H51.6475ZM45.473 38.5686C45.5338 42.6749 47.4805 45.4428 52.1038 45.4428C53.8984 45.4428 55.4496 45.1997 57.0618 44.5001C57.2747 44.4088 57.4269 44.4392 57.4269 44.7129V48.515C57.4269 48.8191 57.3357 48.9713 57.1228 49.1234C55.5107 49.9141 53.5031 50.2792 51.009 50.2792C42.9791 50.2792 39.9677 44.348 39.9677 37.7476C39.9677 30.5692 43.6787 24.6989 50.2182 24.6989C56.8491 24.6989 59.1608 30.2651 59.1608 34.7972C59.1608 36.2573 59.0695 37.4435 58.9175 38.0214C58.8567 38.2647 58.7654 38.3561 58.522 38.4169C57.9136 38.5082 56.119 38.6297 53.4423 38.6297H45.473V38.5686ZM29.1698 35.4662C28.3181 32.0899 26.2497 24.729 25.4892 21.1703H25.4284C24.7897 24.729 23.1167 30.7515 21.8696 35.4662H29.1698ZM20.6225 40.3937L18.2196 49.4883C18.1588 49.7315 18.0676 49.8229 17.7633 49.8229H13.292C12.9879 49.8229 12.927 49.7316 12.9879 49.3667L21.6262 19.1628C21.7783 18.6154 21.8695 18.1895 21.9303 16.6687C21.9303 16.4558 22.0216 16.3646 22.1736 16.3646H28.5611C28.774 16.3646 28.8653 16.4254 28.9262 16.6687L38.5987 49.4275C38.6595 49.6707 38.5987 49.8229 38.3554 49.8229H33.3367C33.0934 49.8229 32.9412 49.7316 32.8803 49.5189L30.3861 40.3939H20.6225V40.3937Z" fill="#D8A1FF"/>
</g>
<defs>
<clipPath id="clip0_85_327">
<rect width="73" height="73" fill="white"/>
</clipPath>
</defs>
</svg>
