<svg width="73" height="73" viewBox="0 0 73 73" fill="none" xmlns="http://www.w3.org/2000/svg">
<path d="M69.5781 47.9063C69.5781 48.8138 69.2176 49.6842 68.5759 50.3259C67.9342 50.9676 67.0638 51.3281 66.1562 51.3281H57.2309L62.2496 59.8543C62.4807 60.2393 62.6331 60.6663 62.698 61.1106C62.7629 61.555 62.7389 62.0077 62.6275 62.4427C62.5161 62.8777 62.3195 63.2863 62.049 63.6447C61.7786 64.0032 61.4397 64.3044 61.052 64.5309C60.5302 64.8549 59.9267 65.0231 59.3125 65.0156C58.7185 65.0168 58.1346 64.862 57.6192 64.5668C57.1038 64.2715 56.6749 63.8462 56.3754 63.3332L40.1785 35.9297C39.7172 35.1469 39.5857 34.213 39.813 33.3333C40.0402 32.4536 40.6077 31.7002 41.3904 31.2389C41.778 31.0104 42.2068 30.8606 42.6523 30.7979C43.0978 30.7352 43.5513 30.7608 43.9868 30.8733C44.8665 31.1006 45.6199 31.668 46.0813 32.4508L53.1816 44.4844H66.1562C67.0638 44.4844 67.9342 44.8449 68.5759 45.4866C69.2176 46.1283 69.5781 46.9987 69.5781 47.9063ZM37.9828 44.4844H27.7742L46.2809 13.1457C46.6692 12.3714 46.7495 11.4786 46.5054 10.6475C46.2614 9.81633 45.7112 9.10867 44.9659 8.66726C44.2205 8.22585 43.3355 8.08354 42.4894 8.26904C41.6432 8.45455 40.8989 8.95406 40.4066 9.6668L36.5 16.2539L32.5934 9.6668C32.3829 9.24716 32.0883 8.87532 31.7279 8.57442C31.3676 8.27351 30.9492 8.04997 30.4987 7.91771C30.0483 7.78544 29.5754 7.74728 29.1096 7.8056C28.6438 7.86392 28.1949 8.01747 27.791 8.2567C27.387 8.49593 27.0366 8.81572 26.7616 9.19617C26.4865 9.57663 26.2927 10.0096 26.1922 10.4682C26.0917 10.9268 26.0866 11.4011 26.1772 11.8617C26.2679 12.3224 26.4523 12.7594 26.7191 13.1457L32.5363 22.9836L19.8184 44.4844H6.84375C5.93621 44.4844 5.06585 44.8449 4.42412 45.4866C3.78239 46.1283 3.42188 46.9987 3.42188 47.9063C3.42188 48.8138 3.78239 49.6842 4.42412 50.3259C5.06585 50.9676 5.93621 51.3281 6.84375 51.3281H37.9828C38.8903 51.3281 39.7607 50.9676 40.4024 50.3259C41.0442 49.6842 41.4047 48.8138 41.4047 47.9063C41.4047 46.9987 41.0442 46.1283 40.4024 45.4866C39.7607 44.8449 38.8903 44.4844 37.9828 44.4844ZM16.7672 56.3754C16.3822 56.1443 15.9552 55.9919 15.5109 55.927C15.0665 55.8621 14.6138 55.8861 14.1788 55.9975C13.7438 56.1089 13.3352 56.3055 12.9768 56.576C12.6183 56.8464 12.3171 57.1853 12.0906 57.573L10.7504 59.8543C10.5193 60.2393 10.3669 60.6663 10.302 61.1106C10.2371 61.555 10.2611 62.0077 10.3725 62.4427C10.4839 62.8777 10.6805 63.2863 10.951 63.6447C11.2214 64.0032 11.5603 64.3044 11.948 64.5309C12.4698 64.8549 13.0733 65.0231 13.6875 65.0156C14.2815 65.0168 14.8654 64.862 15.3808 64.5668C15.8962 64.2715 16.3251 63.8462 16.6246 63.3332L17.9934 61.052C18.45 60.269 18.5774 59.3368 18.3475 58.4601C18.1176 57.5833 17.5493 56.8336 16.7672 56.3754V56.3754Z" fill="#FFD700"/>
</svg>
