<svg width="52" height="52" viewBox="0 0 52 52" fill="none" xmlns="http://www.w3.org/2000/svg">
<g clip-path="url(#clip0_118_374)">
<circle cx="25.5529" cy="26.1992" r="23.2649" fill="#23BEC7" stroke="#FFD700" stroke-width="4.57588"/>
<path d="M26.1478 26.63C26.8951 25.9735 27.5018 25.3552 28.3018 25.0181C28.7707 24.8218 29.2895 24.5434 29.735 24.9742C30.1804 25.405 29.8991 25.8768 29.7643 26.3399C29.4946 27.2689 29.2221 28.2009 28.9759 29.1358C28.9026 29.4083 28.7795 29.7219 29.058 29.9652C29.3364 30.2084 29.6851 30.0472 29.9606 29.9066C30.9805 29.3849 31.8099 28.7665 31.6809 27.3949C31.6047 26.5743 31.6809 25.701 32.44 25.1148C32.7331 24.8833 33.0877 24.6137 33.4599 24.8716C33.8321 25.1295 33.5654 25.4577 33.4599 25.7508C33.0998 26.856 32.9995 28.0294 33.1668 29.1797C33.2049 29.4376 33.1668 29.8098 33.4042 29.9036C33.7295 30.0267 33.876 29.6106 34.0841 29.4406C34.2922 29.2706 34.4329 29.0303 34.6146 28.831C35.0952 28.3064 35.359 27.8873 34.7201 27.1693C33.9786 26.3399 34.2014 24.7163 34.9311 23.9455C35.1315 23.7045 35.4025 23.5324 35.7059 23.4535C36.0092 23.3747 36.3297 23.393 36.6221 23.5059C37.2581 23.7374 37.4662 24.2855 37.4837 24.9273C37.5013 25.6482 37.1907 26.2813 36.9474 26.9788C37.6567 27.1575 38.0963 26.759 38.4948 26.3282C39.4561 25.2848 40.5698 24.6225 42.0469 24.7778C43.1166 24.8892 43.7291 25.4665 43.6734 26.3076C43.6524 26.4939 43.5869 26.6724 43.4827 26.8282C43.3784 26.984 43.2382 27.1124 43.074 27.2029C42.9098 27.2933 42.7263 27.343 42.5389 27.3479C42.3515 27.3528 42.1657 27.3126 41.997 27.2308C41.6629 27.052 41.704 26.8879 41.997 26.7179C42.1094 26.6692 42.1996 26.5804 42.25 26.4688C42.3004 26.3571 42.3074 26.2307 42.2696 26.1142C42.2234 25.9748 42.1364 25.8525 42.0199 25.7631C41.9034 25.6738 41.7627 25.6215 41.616 25.6131C41.2125 25.553 40.801 25.6449 40.4613 25.871C39.3887 26.5568 38.7879 28.4617 39.2891 29.6223C39.5821 30.3198 40.1272 30.4517 40.6929 29.9564C41.005 29.6573 41.2402 29.2873 41.3787 28.8779C41.4614 28.6227 41.5787 28.3801 41.7274 28.1569C41.9941 27.8023 42.3634 27.4887 42.8264 27.6792C43.2895 27.8697 43.0521 28.3503 42.9759 28.6757C42.7033 29.804 42.4718 30.903 43.4272 31.8525C43.4525 31.8756 43.4726 31.9037 43.4864 31.935C43.5002 31.9662 43.5073 32.0001 43.5073 32.0342C43.5073 32.0684 43.5002 32.1022 43.4864 32.1335C43.4726 32.1648 43.4525 32.1929 43.4272 32.216C43.3694 32.2726 43.2951 32.3094 43.215 32.321C43.1349 32.3326 43.0532 32.3184 42.9818 32.2804C42.6504 32.1642 42.3452 31.9837 42.0837 31.7494C41.8222 31.515 41.6095 31.2314 41.4578 30.9147C41.3611 30.7037 41.32 30.396 40.9772 30.6978C40.6813 31.001 40.286 31.1872 39.8639 31.2222C39.4418 31.2572 39.0212 31.1387 38.6795 30.8883C37.8472 30.355 37.5482 29.5549 37.6244 28.5965C37.6391 28.409 37.6625 28.2273 37.686 28.0104C36.7276 28.0895 35.9481 28.3035 35.4 29.1827C34.9247 29.9092 34.2774 30.5071 33.5156 30.9235C32.5162 31.5096 32.1264 31.3279 31.8568 30.2289C31.8187 30.0765 31.7864 29.9359 31.7278 29.6428C31.0787 30.2241 30.3354 30.6909 29.5298 31.0232C28.0146 31.5624 27.1354 30.8678 27.3581 29.2647C27.4956 28.4414 27.7226 27.6355 28.0351 26.8615C28.1055 26.671 28.2755 26.4366 28.0351 26.2754C27.8593 26.164 27.6747 26.3516 27.5369 26.4688C26.602 27.2631 25.7785 28.1423 25.5089 29.3995C25.4463 29.7703 25.34 30.1323 25.1924 30.478C25.1034 30.7092 24.9396 30.904 24.7272 31.0314C24.5148 31.1589 24.2659 31.2117 24.0201 31.1814C23.4925 31.0876 23.8325 30.5484 23.686 30.2172C23.1233 30.5103 22.584 30.8033 22.0272 31.0583C21.6257 31.243 21.1011 31.3895 20.808 31.0437C20.3186 30.4575 19.9874 30.6597 19.4716 30.988C18.7184 31.4686 17.8539 31.2635 17.171 30.4692C16.8252 30.0677 16.6464 30.0941 16.3123 30.4517C15.6358 31.1496 14.832 31.7116 13.9443 32.1075C10.4597 33.7634 7.03368 31.9053 6.84025 28.0661C6.61166 23.7315 8.45507 20.2821 12.0774 17.876C12.5454 17.551 13.0796 17.3338 13.6416 17.24C14.2036 17.1463 14.7794 17.1783 15.3276 17.3338C15.9706 17.5019 16.5356 17.8875 16.9267 18.4249C17.3177 18.9623 17.5107 19.6185 17.4729 20.2821C17.4302 20.9187 17.1859 21.5252 16.7754 22.0136C16.3649 22.5021 15.8096 22.8472 15.1898 22.9989C14.9818 23.0458 14.7121 23.1278 14.6037 22.9315C14.4396 22.6677 14.7004 22.4889 14.8792 22.3453C15.858 21.5189 16.0251 20.4433 15.8405 19.2622C15.6646 18.1603 14.8792 17.7148 13.8329 18.1163C13.0819 18.428 12.4195 18.9202 11.9045 19.5494C10.1737 21.4619 9.09156 23.8724 8.81262 26.4366C8.67157 27.5436 8.86875 28.6675 9.37825 29.6604C10.1226 31.0818 11.3858 31.7119 12.9449 31.3426C14.1787 31.0342 15.3109 30.41 16.2302 29.5314C16.3591 29.3967 16.4597 29.2376 16.5261 29.0635C16.5925 28.8893 16.6235 28.7037 16.6171 28.5174C16.831 26.2901 18.7565 24.6196 20.9077 24.7837C21.4266 24.7998 21.9208 25.0088 22.2939 25.3698C22.4712 25.5356 22.5926 25.7524 22.6415 25.9902C22.6903 26.2281 22.6641 26.4752 22.5664 26.6974C22.3584 27.2015 21.8953 27.3656 21.3707 27.3393C21.261 27.3512 21.1501 27.3357 21.0478 27.2943C20.9455 27.2529 20.8551 27.1868 20.7846 27.1019C20.5911 26.8088 20.9604 26.7883 21.0776 26.6417C21.4059 26.2314 21.2212 25.742 20.6585 25.6277C20.3801 25.5652 20.0901 25.5778 19.8182 25.6644C19.5462 25.7509 19.3022 25.9082 19.1111 26.1201C18.7127 26.5247 18.4157 27.018 18.2445 27.5595C18.0734 28.1009 18.0329 28.6753 18.1264 29.2354C18.185 29.6692 18.3697 30.0941 18.8474 30.2231C19.3251 30.352 19.6357 29.9945 19.9288 29.6604C20.1458 29.3832 20.3025 29.0638 20.3889 28.7225C20.459 28.4019 20.6332 28.1134 20.8842 27.9019C21.1773 27.6763 21.4997 27.4916 21.8455 27.6939C22.1913 27.8961 21.9803 28.236 21.9803 28.5174C21.9803 29.0332 21.4235 29.634 22.1122 30.0296C22.4814 30.2407 23.9702 29.1182 24.0875 28.5907C24.2721 27.7495 24.4216 26.8996 24.5886 26.0556C24.6092 25.7581 24.7219 25.4744 24.911 25.2438C25.0534 25.0815 25.2419 24.9664 25.4513 24.9141C25.6608 24.8617 25.8813 24.8745 26.0833 24.9507C26.5258 25.1354 26.306 25.5369 26.2621 25.8768C26.2386 26.079 26.2034 26.2842 26.1478 26.63V26.63ZM36.0477 24.6782C35.9715 24.473 35.8484 24.2737 35.5964 24.3001C35.3443 24.3265 35.2711 24.558 35.2505 24.7749C35.2183 25.096 35.2622 25.4203 35.3789 25.7212C35.4955 26.0222 35.6814 26.2914 35.9217 26.5069C36.1984 25.9365 36.2436 25.2811 36.0477 24.6782Z" fill="white"/>
</g>
<defs>
<clipPath id="clip0_118_374">
<rect width="51.1057" height="51.1057" fill="white" transform="translate(0 0.646362)"/>
</clipPath>
</defs>
</svg>
