<svg width="73" height="73" viewBox="0 0 73 73" fill="none" xmlns="http://www.w3.org/2000/svg">
<path d="M6.09552 66.9167L10.2079 51.8057C7.49815 47.1606 6.07452 41.8776 6.08335 36.5C6.08335 19.7009 19.7009 6.08333 36.5 6.08333C53.2991 6.08333 66.9167 19.7009 66.9167 36.5C66.9167 53.2991 53.2991 66.9167 36.5 66.9167C31.1247 66.9253 25.844 65.5028 21.2004 62.7952L6.09552 66.9167ZM25.5226 22.2285C25.1299 22.2529 24.746 22.3563 24.3942 22.5327C24.0642 22.7195 23.763 22.9531 23.4999 23.2262C23.1349 23.5699 22.9281 23.868 22.7061 24.1569C21.5819 25.6199 20.9772 27.4158 20.9875 29.2608C20.9936 30.7512 21.3829 32.2021 21.9913 33.5587C23.2353 36.3023 25.2824 39.2071 27.9864 41.899C28.6373 42.5468 29.273 43.1977 29.9574 43.803C33.3135 46.7579 37.3129 48.8888 41.6374 50.0263L43.3681 50.2909C43.9308 50.3213 44.4935 50.2787 45.0593 50.2514C45.9451 50.2056 46.8101 49.9658 47.593 49.5487C47.9913 49.3436 48.38 49.1203 48.7579 48.8796C48.7579 48.8796 48.8887 48.7944 49.1381 48.6058C49.5488 48.3017 49.8012 48.0857 50.1419 47.7298C50.3944 47.4682 50.6134 47.161 50.7806 46.8112C51.0179 46.3155 51.2551 45.3695 51.3525 44.5817C51.4255 43.9795 51.4042 43.651 51.3951 43.4472C51.3829 43.1217 51.1122 42.7841 50.8171 42.6411L49.0469 41.8472C49.0469 41.8472 46.4006 40.6945 44.7855 39.9584C44.6152 39.8841 44.4327 39.8419 44.2471 39.8337C44.039 39.8123 43.8288 39.8357 43.6305 39.9023C43.4321 39.969 43.2504 40.0773 43.0974 40.22V40.2139C43.0822 40.2139 42.8784 40.3872 40.6793 43.0517C40.553 43.2214 40.3792 43.3495 40.1798 43.42C39.9805 43.4904 39.7647 43.4999 39.5599 43.4472C39.3617 43.3942 39.1676 43.3271 38.979 43.2464C38.6018 43.0882 38.471 43.0274 38.2125 42.9149L38.1973 42.9088C36.4572 42.1491 34.846 41.1229 33.4219 39.8671C33.0386 39.5325 32.6827 39.1675 32.3177 38.8147C31.1211 37.6687 30.0782 36.3723 29.2152 34.9579L29.0358 34.6689C28.9069 34.4747 28.8027 34.2653 28.7255 34.0454C28.6099 33.5982 28.9111 33.2393 28.9111 33.2393C28.9111 33.2393 29.6502 32.4302 29.9939 31.9922C30.2801 31.6282 30.5471 31.2495 30.7939 30.8577C31.1528 30.2798 31.2653 29.6867 31.0767 29.2274C30.2251 27.1469 29.343 25.0755 28.4366 23.0193C28.2571 22.6117 27.7248 22.3197 27.2412 22.262C27.0769 22.2437 26.9127 22.2255 26.7484 22.2133C26.34 22.193 25.9306 22.1971 25.5226 22.2255V22.2285Z" fill="#FFD700"/>
</svg>
