<svg width="73" height="73" viewBox="0 0 73 73" fill="none" xmlns="http://www.w3.org/2000/svg">
<path d="M68.3158 18.25C65.9737 19.3146 63.4491 20.0142 60.8333 20.3488C63.51 18.7367 65.5783 16.1817 66.5516 13.1096C64.0271 14.6304 61.2287 15.695 58.2783 16.3033C55.8754 13.6875 52.4991 12.1667 48.6666 12.1667C41.5187 12.1667 35.6787 18.0067 35.6787 25.2154C35.6787 26.2496 35.8004 27.2533 36.0133 28.1963C25.185 27.6488 15.5429 22.4475 9.12498 14.5696C7.99956 16.4858 7.36081 18.7367 7.36081 21.1092C7.36081 25.6413 9.64206 29.6563 13.1704 31.9375C11.0108 31.9375 9.00331 31.3292 7.23914 30.4167V30.5079C7.23914 36.8346 11.7408 42.1271 17.7025 43.3133C15.7884 43.8371 13.779 43.91 11.8321 43.5263C12.6582 46.1192 14.2762 48.3881 16.4585 50.0139C18.6408 51.6398 21.2778 52.5408 23.9987 52.5904C19.3864 56.2418 13.6692 58.2154 7.78664 58.1871C6.75248 58.1871 5.71831 58.1263 4.68414 58.0046C10.4633 61.7154 17.3375 63.875 24.6983 63.875C48.6666 63.875 61.8371 43.9825 61.8371 26.7363C61.8371 26.1583 61.8371 25.6108 61.8066 25.0329C64.3616 23.2079 66.5516 20.8963 68.3158 18.25V18.25Z" fill="#FFD700"/>
</svg>
