<svg width="73" height="73" viewBox="0 0 73 73" fill="none" xmlns="http://www.w3.org/2000/svg">
<path d="M45.625 36.5C45.625 38.3048 45.0898 40.069 44.0872 41.5696C43.0845 43.0702 41.6594 44.2398 39.992 44.9304C38.3246 45.6211 36.4899 45.8018 34.7198 45.4497C32.9497 45.0976 31.3238 44.2285 30.0477 42.9523C28.7715 41.6762 27.9024 40.0503 27.5503 38.2802C27.1982 36.5101 27.3789 34.6754 28.0696 33.008C28.7602 31.3406 29.9298 29.9155 31.4304 28.9128C32.931 27.9102 34.6952 27.375 36.5 27.375C38.9178 27.3825 41.2344 28.3463 42.944 30.056C44.6537 31.7656 45.6175 34.0822 45.625 36.5V36.5ZM65.0156 23.9531V49.0469C65.0156 53.2821 63.3332 57.3438 60.3385 60.3385C57.3438 63.3332 53.2821 65.0156 49.0469 65.0156H23.9531C19.7179 65.0156 15.6562 63.3332 12.6615 60.3385C9.66679 57.3438 7.98438 53.2821 7.98438 49.0469V23.9531C7.98438 19.7179 9.66679 15.6562 12.6615 12.6615C15.6562 9.66679 19.7179 7.98438 23.9531 7.98438H49.0469C53.2821 7.98438 57.3438 9.66679 60.3385 12.6615C63.3332 15.6562 65.0156 19.7179 65.0156 23.9531V23.9531ZM50.1875 36.5C50.1875 33.7929 49.3847 31.1465 47.8807 28.8956C46.3767 26.6447 44.239 24.8904 41.738 23.8544C39.2369 22.8184 36.4848 22.5474 33.8297 23.0755C31.1746 23.6036 28.7357 24.9072 26.8215 26.8215C24.9072 28.7357 23.6036 31.1746 23.0755 33.8297C22.5474 36.4848 22.8184 39.2369 23.8544 41.738C24.8904 44.239 26.6447 46.3767 28.8956 47.8807C31.1465 49.3847 33.7929 50.1875 36.5 50.1875C40.1302 50.1875 43.6116 48.7454 46.1785 46.1785C48.7454 43.6116 50.1875 40.1302 50.1875 36.5ZM54.75 21.6719C54.75 20.9951 54.5493 20.3335 54.1733 19.7708C53.7973 19.2081 53.2629 18.7695 52.6376 18.5105C52.0124 18.2515 51.3243 18.1837 50.6606 18.3158C49.9968 18.4478 49.3871 18.7737 48.9085 19.2522C48.4299 19.7308 48.104 20.3405 47.972 21.0043C47.84 21.6681 47.9077 22.3561 48.1667 22.9814C48.4257 23.6066 48.8643 24.1411 49.427 24.5171C49.9898 24.8931 50.6513 25.0938 51.3281 25.0938C52.2357 25.0937 53.106 24.7332 53.7478 24.0915C54.3895 23.4498 54.75 22.5794 54.75 21.6719Z" fill="#FFD700"/>
</svg>
