<svg width="94" height="72" viewBox="0 0 94 72" fill="none" xmlns="http://www.w3.org/2000/svg">
<path d="M52.55 10H41.45C39.4069 10 37.75 11.6569 37.75 13.7V24.8C37.75 26.8431 39.4069 28.5 41.45 28.5H52.55C54.5931 28.5 56.25 26.8431 56.25 24.8V13.7C56.25 11.6569 54.5931 10 52.55 10ZM34.05 16.475H24.2508C23.1523 13.7647 20.5034 11.85 17.4 11.85C13.3138 11.85 10 15.1627 10 19.25C10 23.3373 13.3138 26.65 17.4 26.65C20.5034 26.65 23.1523 24.7353 24.2508 22.025H33.4696C27.0674 25.7851 22.3858 32.1214 20.804 39.6H26.5159C27.8224 34.7888 30.7674 30.6726 34.7299 27.8571C34.3021 26.9229 34.05 25.8927 34.05 24.8V16.475ZM28.5 43.3H17.4C15.3569 43.3 13.7 44.9569 13.7 47V58.1C13.7 60.1431 15.3569 61.8 17.4 61.8H28.5C30.5431 61.8 32.2 60.1431 32.2 58.1V47C32.2 44.9569 30.5431 43.3 28.5 43.3ZM76.6 11.85C73.4966 11.85 70.8477 13.7647 69.7492 16.475H59.95V24.8C59.95 25.8927 59.6968 26.9229 59.2701 27.8571C63.2326 30.6726 66.1776 34.7888 67.4841 39.6H73.196C71.6143 32.1214 66.9326 25.7851 60.5304 22.025H69.7492C70.8477 24.7353 73.4966 26.65 76.6 26.65C80.6862 26.65 84 23.3373 84 19.25C84 15.1627 80.6862 11.85 76.6 11.85ZM76.6 43.3H65.5C63.4569 43.3 61.8 44.9569 61.8 47V58.1C61.8 60.1431 63.4569 61.8 65.5 61.8H76.6C78.6431 61.8 80.3 60.1431 80.3 58.1V47C80.3 44.9569 78.6431 43.3 76.6 43.3Z" fill="#FFD700"/>
</svg>
