<svg width="54" height="54" viewBox="0 0 54 54" fill="none" xmlns="http://www.w3.org/2000/svg">
<path d="M24 1.73205C25.8564 0.660254 28.1436 0.660254 30 1.73205L47.3827 11.7679C49.2391 12.8397 50.3827 14.8205 50.3827 16.9641V37.0359C50.3827 39.1795 49.2391 41.1603 47.3827 42.2321L30 52.2679C28.1436 53.3397 25.8564 53.3397 24 52.2679L6.61731 42.2321C4.76091 41.1603 3.61731 39.1795 3.61731 37.0359V16.9641C3.61731 14.8205 4.76091 12.8397 6.61731 11.7679L24 1.73205Z" fill="#FFD700" fill-opacity="0.17"/>
<path d="M21.05 12.8333H32.95C37.4833 12.8333 41.1667 16.5167 41.1667 21.05V32.95C41.1667 35.1292 40.301 37.2191 38.7601 38.7601C37.2191 40.301 35.1292 41.1667 32.95 41.1667H21.05C16.5167 41.1667 12.8333 37.4833 12.8333 32.95V21.05C12.8333 18.8708 13.699 16.7809 15.2399 15.2399C16.7809 13.699 18.8708 12.8333 21.05 12.8333M20.7667 15.6667C19.4141 15.6667 18.1169 16.204 17.1604 17.1604C16.204 18.1169 15.6667 19.4141 15.6667 20.7667V33.2333C15.6667 36.0525 17.9475 38.3333 20.7667 38.3333H33.2333C34.5859 38.3333 35.8832 37.796 36.8396 36.8396C37.796 35.8831 38.3333 34.5859 38.3333 33.2333V20.7667C38.3333 17.9475 36.0525 15.6667 33.2333 15.6667H20.7667ZM34.4375 17.7917C34.9072 17.7917 35.3576 17.9782 35.6897 18.3103C36.0218 18.6424 36.2083 19.0928 36.2083 19.5625C36.2083 20.0321 36.0218 20.4826 35.6897 20.8147C35.3576 21.1468 34.9072 21.3333 34.4375 21.3333C33.9679 21.3333 33.5174 21.1468 33.1853 20.8147C32.8532 20.4826 32.6667 20.0321 32.6667 19.5625C32.6667 19.0928 32.8532 18.6424 33.1853 18.3103C33.5174 17.9782 33.9679 17.7917 34.4375 17.7917ZM27 19.9167C28.8786 19.9167 30.6803 20.6629 32.0087 21.9913C33.3371 23.3197 34.0833 25.1214 34.0833 27C34.0833 28.8786 33.3371 30.6803 32.0087 32.0087C30.6803 33.3371 28.8786 34.0833 27 34.0833C25.1214 34.0833 23.3197 33.3371 21.9913 32.0087C20.663 30.6803 19.9167 28.8786 19.9167 27C19.9167 25.1214 20.663 23.3197 21.9913 21.9913C23.3197 20.6629 25.1214 19.9167 27 19.9167M27 22.75C25.8728 22.75 24.7918 23.1978 23.9948 23.9948C23.1978 24.7918 22.75 25.8728 22.75 27C22.75 28.1272 23.1978 29.2082 23.9948 30.0052C24.7918 30.8022 25.8728 31.25 27 31.25C28.1272 31.25 29.2082 30.8022 30.0052 30.0052C30.8022 29.2082 31.25 28.1272 31.25 27C31.25 25.8728 30.8022 24.7918 30.0052 23.9948C29.2082 23.1978 28.1272 22.75 27 22.75Z" fill="white"/>
</svg>
