<svg width="73" height="73" viewBox="0 0 73 73" fill="none" xmlns="http://www.w3.org/2000/svg">
<path d="M54.9759 4.5625H20.1594V68.4375H20.3237H67.8604V17.9945L55.1333 4.72675L54.9759 4.5625Z" fill="#070444"/>
<path d="M51.465 7.96841H5.13965V25.8625H51.465V7.96841Z" fill="#5BC3F6"/>
<path d="M54.9758 4.5625V17.9945H67.8603L54.9758 4.5625Z" fill="#5BC3F6"/>
<path d="M16.1969 11.3766C17.1309 11.2024 18.0804 11.126 19.0302 11.1485C19.5187 11.105 20.0109 11.1619 20.4766 11.3156C20.9423 11.4694 21.3716 11.7169 21.7381 12.0427C22.4079 12.7996 22.7586 13.7864 22.7167 14.7962C22.7669 15.7938 22.4791 16.7792 21.9 17.593C21.5424 17.992 21.0996 18.3054 20.6044 18.51C20.1092 18.7145 19.5743 18.805 19.0393 18.7747C18.8518 18.7744 18.6644 18.7629 18.4782 18.7405V22.6186H16.1969V11.3766ZM18.4782 16.409C18.6505 16.4327 18.8243 16.4442 18.9983 16.4433C19.2043 16.4516 19.4096 16.4149 19.6 16.3356C19.7903 16.2564 19.9611 16.1365 20.1003 15.9845C20.2396 15.8324 20.344 15.6518 20.4062 15.4552C20.4684 15.2586 20.487 15.0509 20.4606 14.8464C20.4849 14.6651 20.469 14.4806 20.4141 14.3061C20.3591 14.1316 20.2663 13.9714 20.1424 13.8368C20.0185 13.7022 19.8665 13.5966 19.6971 13.5274C19.5277 13.4583 19.3452 13.4272 19.1625 13.4366C18.9324 13.4297 18.7024 13.4527 18.4782 13.505V16.409Z" fill="#070444"/>
<path d="M25.2831 19.5686C25.9428 20.0101 26.7138 20.256 27.5073 20.278C28.2943 20.278 28.6776 19.9222 28.6776 19.3496C28.6776 18.777 28.2875 18.4781 27.3294 18.0219C26.6256 17.7679 26.0172 17.3031 25.5873 16.6907C25.1574 16.0783 24.9269 15.3482 24.9272 14.6C24.8923 14.1352 24.9558 13.6682 25.1135 13.2296C25.2712 12.7909 25.5195 12.3904 25.8424 12.0542C26.1653 11.718 26.5554 11.4536 26.9873 11.2783C27.4192 11.1029 27.8832 11.0206 28.3491 11.0367C29.1645 11.0137 29.9703 11.2183 30.676 11.6275L30.2037 14.0616C29.6425 13.7132 28.996 13.5261 28.3354 13.521C27.6373 13.521 27.2541 13.8586 27.2541 14.365C27.2541 14.9399 27.7103 15.1749 28.7916 15.7155C29.4745 15.9819 30.0572 16.4548 30.4584 17.0682C30.8596 17.6817 31.0592 18.405 31.0296 19.1374C31.0656 19.626 30.996 20.1166 30.8253 20.5758C30.6546 21.035 30.387 21.452 30.0406 21.7984C29.6942 22.1448 29.2771 22.4125 28.8179 22.5832C28.3587 22.7538 27.8681 22.8235 27.3796 22.7874C26.4939 22.7855 25.6258 22.5401 24.8702 22.0779L25.2831 19.5686Z" fill="#070444"/>
<path d="M35.6331 20.4856H35.405V13.1286H35.4369C35.9301 13.0729 36.4289 13.1625 36.8718 13.3864C37.1979 13.6471 37.4633 13.9756 37.6498 14.3491C37.8507 14.7409 37.9666 15.1708 37.9897 15.6106C38.0125 16.1376 37.9897 16.5619 37.9897 16.9292C37.9991 17.3406 37.9724 17.752 37.9098 18.1588C37.8364 18.5793 37.6995 18.9862 37.5038 19.3655C37.2833 19.7166 36.9852 20.0124 36.6323 20.2301C36.3366 20.4211 35.9864 20.51 35.6354 20.4833M36.0734 11.0367C35.8065 11.0367 35.5487 11.0572 35.3662 11.0641L34.8028 11.08H32.9321V22.6095H35.1313C35.9736 22.6329 36.8123 22.4902 37.5996 22.1897C38.2352 21.939 38.7982 21.5336 39.2375 21.0103C39.6628 20.4833 39.968 19.8698 40.1318 19.2127C40.3207 18.4672 40.4127 17.7005 40.4055 16.9314C40.4518 16.0243 40.3813 15.115 40.1956 14.2259C40.0172 13.5707 39.6848 12.9677 39.2261 12.467C38.8693 12.0607 38.4319 11.7329 37.9418 11.5043C37.5217 11.3092 37.0798 11.1652 36.6255 11.0755C36.4446 11.0455 36.2613 11.0318 36.078 11.0344" fill="#070444"/>
<path d="M36.5 44.8288C35.8148 44.848 35.1291 44.8244 34.4468 44.7581V36.7966C34.7001 36.7601 35.5875 36.7258 36.8193 36.7258C39.785 36.7258 41.0921 37.9714 41.0921 40.8116C41.0921 44.3612 39.0025 44.8288 36.5022 44.8288M36.8193 33.3519C34.4149 33.3519 32.0401 33.3884 30.8379 33.4226C30.6805 33.4226 30.6486 33.4933 30.6486 33.6713V56.3241C30.6486 56.502 30.7124 56.5727 30.8767 56.5727H34.2187C34.3761 56.5727 34.4468 56.502 34.4468 56.2876V48.2028H36.4087C41.0602 48.2028 44.8904 46.7017 44.8904 41.0579C44.8585 36.9403 43.0243 33.3519 36.8193 33.3519" fill="#5BC3F6"/>
<path d="M52.6399 39.2786C51.9124 39.1903 51.1744 39.2577 50.4749 39.4763C49.7754 39.6949 49.1304 40.0598 48.5827 40.5467C48.0349 41.0336 47.597 41.6314 47.2979 42.3005C46.9988 42.9695 46.8453 43.6945 46.8478 44.4273C46.8478 47.0188 47.9884 48.4036 51.246 49.9023C53.5273 50.9312 54.0953 51.465 54.0953 52.3866C54.0953 53.1668 53.5889 53.9835 52.1334 53.9835C50.2707 53.874 48.4843 53.2054 47.0075 52.065C46.9853 52.0475 46.9581 52.0379 46.9299 52.0376C46.8546 52.0376 46.7862 52.1106 46.7862 52.2429V55.5097C46.779 55.5811 46.7932 55.653 46.8269 55.7163C46.8606 55.7797 46.9123 55.8316 46.9755 55.8655C48.4427 56.7904 50.146 57.2713 51.8802 57.2503C52.6417 57.3427 53.4142 57.2682 54.1441 57.0321C54.8739 56.796 55.5436 56.4038 56.1067 55.8829C56.6697 55.3619 57.1126 54.7247 57.4047 54.0153C57.6967 53.306 57.8308 52.5416 57.7978 51.7753C57.7978 49.218 56.4062 47.8971 53.1463 46.4143C50.7738 45.349 50.3609 44.8882 50.3609 44.035C50.3609 43.3506 50.7715 42.543 52.3228 42.543C53.8835 42.5881 55.4031 43.0539 56.721 43.8913C56.7556 43.9165 56.7969 43.9308 56.8397 43.9323C56.9377 43.9323 57.0062 43.8342 57.0062 43.6768V40.7705C57.0158 40.6846 57.0034 40.5978 56.9703 40.518C56.9372 40.4382 56.8844 40.3681 56.8168 40.3143C55.551 39.5802 54.1018 39.2233 52.6399 39.2854" fill="#5BC3F6"/>
</svg>
