<svg width="825" height="825" viewBox="0 0 825 825" fill="none" xmlns="http://www.w3.org/2000/svg">
<path d="M722.689 308.797C721.616 305.626 719.874 302.723 717.583 300.284C715.291 297.844 712.502 295.926 709.404 294.657L636.12 263.789C631.601 256.675 626.642 249.849 621.272 243.353L614.18 164.181C613.848 160.864 612.836 157.651 611.207 154.743C609.577 151.835 607.366 149.293 604.711 147.278C566.911 119.789 523.661 100.716 477.872 91.3426C474.587 90.6953 471.202 90.7525 467.94 91.5106C464.678 92.2686 461.614 93.7101 458.951 95.74L395.664 143.729C387.208 144.349 379.075 145.229 370.682 146.43L298.599 113.081C295.563 111.668 292.262 110.914 288.913 110.871C285.565 110.828 282.246 111.496 279.175 112.83C236.391 131.793 198.214 159.783 167.258 194.88C165.066 197.34 163.426 200.242 162.448 203.389C161.47 206.536 161.178 209.856 161.591 213.126L171.588 291.983C167.694 299.458 164.412 307.16 161.162 315.153L96.1715 360.974C93.4607 362.888 91.1942 365.363 89.5265 368.231C87.8587 371.099 86.8289 374.294 86.5073 377.596C81.5357 424.031 86.6142 470.991 101.398 515.29C102.471 518.46 104.212 521.364 106.504 523.803C108.796 526.242 111.585 528.161 114.683 529.429L187.967 560.298C192.486 567.412 197.445 574.238 202.814 580.734L209.907 659.905C210.239 663.222 211.251 666.435 212.88 669.344C214.509 672.252 216.721 674.793 219.376 676.809C257.176 704.298 300.426 723.371 346.214 732.744C349.5 733.391 352.885 733.334 356.147 732.576C359.409 731.818 362.472 730.377 365.136 728.347L428.422 680.358L453.405 677.656L525.779 710.974C529.564 712.916 533.843 713.681 538.066 713.172C540.417 712.815 542.716 712.171 544.912 711.256C587.695 692.293 625.873 664.304 656.828 629.207C659.021 626.747 660.661 623.845 661.639 620.698C662.616 617.551 662.909 614.231 662.496 610.961L652.499 532.104C656.393 524.629 659.674 516.927 662.924 508.934L727.915 463.112C730.626 461.199 732.892 458.724 734.56 455.856C736.228 452.987 737.258 449.793 737.579 446.491C742.551 400.056 737.472 353.095 722.689 308.797V308.797ZM691.838 431.159L629.854 474.893C625.933 477.776 622.984 481.786 621.399 486.387C617.69 496.805 613.184 506.921 607.919 516.646C605.706 520.993 604.806 525.89 605.329 530.739L614.627 605.851C591.92 629.851 565.085 649.576 535.403 664.087L466.413 632.166C462.57 630.452 458.339 629.794 454.157 630.259L452.414 630.447C441.487 632.511 430.414 633.708 419.298 634.028C414.507 634.283 409.889 635.904 405.99 638.7L345.42 684.632C313.364 676.853 282.951 663.423 255.608 644.971L248.602 569.317C248.076 564.468 246.15 559.876 243.059 556.103C235.936 547.65 229.377 538.739 223.422 529.426C220.81 525.337 217.095 522.071 212.705 520.005L142.804 490.534C133.502 458.886 129.928 425.832 132.249 392.928L194.233 349.194C198.153 346.31 201.103 342.301 202.688 337.7C206.397 327.282 210.903 317.165 216.168 307.441C218.381 303.094 219.281 298.197 218.758 293.348L209.46 218.235C232.167 194.235 259.001 174.51 288.684 160L357.674 191.921C362.071 193.851 366.939 194.449 371.673 193.64C382.6 191.576 393.673 190.379 404.789 190.058C409.58 189.804 414.198 188.182 418.097 185.387L478.667 139.455C510.723 147.234 541.136 160.664 568.478 179.116L575.484 254.77C576.011 259.619 577.937 264.21 581.028 267.983C588.15 276.437 594.71 285.348 600.665 294.661C603.277 298.75 606.992 302.016 611.382 304.082L681.282 333.553C690.584 365.201 694.159 398.255 691.838 431.159V431.159ZM394.451 249.367C362.277 252.846 331.856 265.788 307.038 286.557C282.219 307.325 264.116 334.986 255.017 366.043C245.919 397.1 246.235 430.157 255.925 461.034C265.614 491.912 284.242 519.222 309.453 539.513C334.664 559.803 365.326 572.162 397.561 575.026C429.796 577.891 462.156 571.132 490.55 555.605C518.944 540.077 542.096 516.479 557.078 487.794C572.06 459.109 578.199 426.625 574.72 394.451C570.054 351.307 548.44 311.783 514.633 284.574C480.826 257.365 437.595 244.701 394.451 249.367V249.367ZM424.609 528.241C401.628 530.726 378.425 526.341 357.936 515.639C337.446 504.938 320.59 488.401 309.5 468.12C298.409 447.839 293.581 424.724 295.627 401.699C297.673 378.674 306.501 356.773 320.994 338.765C335.487 320.757 354.995 307.451 377.05 300.53C399.105 293.609 422.717 293.384 444.901 299.882C467.084 306.381 486.842 319.311 501.677 337.039C516.511 354.767 525.756 376.496 528.241 399.477C531.574 430.295 522.528 461.174 503.093 485.322C483.658 509.47 455.427 524.908 424.609 528.241Z" fill="#FFD700" fill-opacity="0.19"/>
</svg>
