<svg width="634" height="306" viewBox="0 0 634 306" fill="none" xmlns="http://www.w3.org/2000/svg">
<g id="signature">
<path id="Vector 1" d="M51.39 21L22.89 159.5M22.89 159.5C22.89 159.5 9.38999 183 41.89 172C74.39 161 92.89 172 108.89 163.5C124.89 155 128.39 145 135.39 136C140.158 129.869 137.502 118.635 135.324 112.094C134.196 108.705 131.867 105.899 128.816 104.042C122.995 100.498 112.697 94.9742 104.39 94.5C86.238 93.4637 65.9786 115.878 60.083 122.917C58.939 124.283 57.6695 125.544 56.2475 126.618L36.4801 141.544C34.7646 142.84 33.2691 144.403 32.0513 146.174L22.89 159.5ZM152.89 146V89.0541C152.89 85.4424 154.022 81.9214 156.126 78.9862L159.973 73.621C165.533 65.8664 177.261 66.4963 181.958 74.8018L202.849 111.739C203.807 113.433 206.39 112.753 206.39 110.807V110.807C206.39 110.604 206.423 110.402 206.487 110.209L225.097 54.3778C228.231 44.9774 238.668 40.1947 247.834 43.9593V43.9593C254.475 46.6868 258.708 53.2692 258.434 60.4431L256.066 122.388C255.95 125.423 255.145 128.391 253.71 131.068L240.89 155M264.39 159.5L298.464 147.395C301.054 146.475 303.426 145.031 305.432 143.154L311.553 137.428C315.596 133.646 317.89 128.358 317.89 122.823V109.94C317.89 106.064 316.763 102.271 314.647 99.0228L297.853 73.2457C296.882 71.7552 296.114 70.1419 295.57 68.4483L293.038 60.571C289.848 50.6469 294.815 39.937 304.452 35.962L327.39 26.5" stroke="white" stroke-width="40" stroke-miterlimit="2.3662" stroke-linecap="round"/>
<path id="Vector 2" d="M386.89 47.5L410.939 48.434C424.5 48.9606 433.61 62.5528 428.943 75.2962L427.955 77.9945C426.301 82.5128 423.073 86.2831 418.863 88.614L395.14 101.75L366.446 117.639C365.442 118.194 364.672 119.092 364.275 120.169V120.169C362.998 123.636 365.968 127.18 369.605 126.528L440.441 113.835C445.241 112.975 450.19 113.898 454.357 116.431L462.431 121.339C469.109 125.398 472.811 132.976 471.909 140.739L468.982 165.906C468.594 169.248 467.368 172.438 465.42 175.18L443.061 206.648C441.953 208.208 440.626 209.601 439.122 210.784L354.606 277.257C353.136 278.413 351.511 279.358 349.778 280.062L339.982 284.047C331.03 287.689 320.949 282.429 318.815 273.004V273.004C317.618 267.717 319.241 262.187 323.106 258.386L347.39 234.5L373.89 204.5L410.39 166L436.89 141.5L525.367 33.091C526.964 31.1349 529.355 30 531.88 30V30C538.226 30 542.237 36.8494 539.251 42.4488V42.4488C534.312 51.708 546.553 60.7694 553.411 52.8265L567.474 36.539C573.266 29.8301 584.187 32.1902 586.692 40.6924L613.89 133M323.89 228L312.925 222.518C310.916 221.513 308.752 220.854 306.524 220.568L273.239 216.301C271.679 216.101 270.099 216.086 268.535 216.256L226.413 220.834C225.399 220.945 224.395 221.132 223.409 221.396L178.069 233.516C175.638 234.166 173.352 235.269 171.33 236.767L133.89 264.5M77.3899 264.5V262" stroke="white" stroke-width="40" stroke-miterlimit="2.3662" stroke-linecap="round"/>
</g>
</svg>
