<svg width="70" height="70" viewBox="0 0 70 70" fill="none" xmlns="http://www.w3.org/2000/svg">
<g clip-path="url(#clip0_169_2)">
<path d="M35 21.875C27.7676 21.875 21.875 27.7676 21.875 35C21.875 42.2324 27.7676 48.125 35 48.125C42.2324 48.125 48.125 42.2324 48.125 35C48.125 27.7676 42.2324 21.875 35 21.875ZM68.6875 32.8809L55.7402 26.4141L60.3203 12.6875C60.9355 10.8281 59.1719 9.06445 57.3262 9.69336L43.5996 14.2734L37.1191 1.3125C36.2441 -0.4375 33.7559 -0.4375 32.8809 1.3125L26.4141 14.2598L12.6738 9.67969C10.8145 9.06445 9.05078 10.8281 9.67969 12.6738L14.2598 26.4004L1.3125 32.8809C-0.4375 33.7559 -0.4375 36.2441 1.3125 37.1191L14.2598 43.5859L9.67969 57.3262C9.06445 59.1855 10.8281 60.9492 12.6738 60.3203L26.4004 55.7402L32.8672 68.6875C33.7422 70.4375 36.2305 70.4375 37.1055 68.6875L43.5723 55.7402L57.2988 60.3203C59.1582 60.9355 60.9219 59.1719 60.293 57.3262L55.7129 43.5996L68.6602 37.1328C70.4375 36.2441 70.4375 33.7559 68.6875 32.8809V32.8809ZM47.373 47.373C40.5508 54.1953 29.4492 54.1953 22.627 47.373C15.8047 40.5508 15.8047 29.4492 22.627 22.627C29.4492 15.8047 40.5508 15.8047 47.373 22.627C54.1953 29.4492 54.1953 40.5508 47.373 47.373Z" fill="white"/>
</g>
<defs>
<clipPath id="clip0_169_2">
<rect width="70" height="70" fill="white"/>
</clipPath>
</defs>
</svg>
