<svg width="54" height="54" viewBox="0 0 54 54" fill="none" xmlns="http://www.w3.org/2000/svg">
<path d="M24 1.73205C25.8564 0.660254 28.1436 0.660254 30 1.73205L47.3827 11.7679C49.2391 12.8397 50.3827 14.8205 50.3827 16.9641V37.0359C50.3827 39.1795 49.2391 41.1603 47.3827 42.2321L30 52.2679C28.1436 53.3397 25.8564 53.3397 24 52.2679L6.61731 42.2321C4.76091 41.1603 3.61731 39.1795 3.61731 37.0359V16.9641C3.61731 14.8205 4.76091 12.8397 6.61731 11.7679L24 1.73205Z" fill="#FFD700" fill-opacity="0.17"/>
<path d="M42.8578 19.1508C42.7765 18.9574 42.6398 18.7924 42.4649 18.6766C42.29 18.5608 42.0848 18.4993 41.875 18.5H37.8375C37.353 17.6547 36.6804 16.9322 35.8718 16.3886C35.0632 15.8449 34.1404 15.4947 33.1747 15.365C32.209 15.2353 31.2265 15.3296 30.3031 15.6407C29.3798 15.9517 28.5404 16.4711 27.85 17.1586C27.2455 17.748 26.7649 18.4522 26.4365 19.23C26.1081 20.0077 25.9384 20.8433 25.9375 21.6875V22.4977C20.532 21.0898 16.1094 16.7336 16.0695 16.6805C15.9306 16.5438 15.7568 16.448 15.567 16.4035C15.3773 16.3589 15.1789 16.3675 14.9937 16.4281C14.8091 16.4869 14.6438 16.5944 14.5152 16.7393C14.3866 16.8843 14.2996 17.0613 14.2633 17.2516C13.1078 23.6531 15.0336 27.943 16.8531 30.4133C17.7657 31.6624 18.8734 32.7566 20.1336 33.6539C18.1016 35.9516 14.9672 37.1469 14.9406 37.1602C14.7907 37.2157 14.6553 37.3044 14.5445 37.4196C14.4336 37.5348 14.3502 37.6735 14.3004 37.8255C14.2506 37.9774 14.2358 38.1386 14.2569 38.297C14.2781 38.4555 14.3347 38.6071 14.4226 38.7406C14.5289 38.9 14.9273 39.418 15.8969 39.9094C17.1055 40.507 18.6992 40.8125 20.625 40.8125C29.9883 40.8125 37.8242 33.6008 38.6211 24.3172L42.632 20.3195C42.7762 20.1659 42.8739 19.9746 42.9138 19.7678C42.9538 19.561 42.9343 19.347 42.8578 19.1508V19.1508ZM36.8414 23.0953C36.6563 23.2789 36.5472 23.5255 36.5359 23.7859C35.9914 32.1398 29.0055 38.6875 20.625 38.6875C19.2172 38.6875 18.2344 38.5016 17.5437 38.2758C19.0711 37.4523 21.1961 36.018 22.5773 33.9594C22.6575 33.8348 22.7107 33.6948 22.7336 33.5484C22.7565 33.402 22.7485 33.2525 22.7101 33.1094C22.6715 32.9648 22.6031 32.8299 22.5093 32.7133C22.4156 32.5966 22.2985 32.5009 22.1656 32.432C22.1523 32.4188 20.1867 31.3961 18.5 29.0719C16.5875 26.4422 15.7773 23.2414 16.0961 19.5492C18.1945 21.2758 22.2055 24.0914 26.8273 24.8617C26.98 24.8862 27.1361 24.8776 27.285 24.8363C27.434 24.7951 27.5723 24.7222 27.6906 24.6227C27.8062 24.5215 27.8991 24.397 27.9632 24.2574C28.0273 24.1177 28.0612 23.9661 28.0625 23.8125V21.6875C28.0645 20.7127 28.4015 19.7681 29.0171 19.0122C29.6327 18.2564 30.4895 17.7351 31.4438 17.5359C32.398 17.3366 33.3918 17.4714 34.2585 17.9178C35.1251 18.3642 35.812 19.0949 36.2039 19.9875C36.2886 20.1774 36.4265 20.3386 36.6009 20.4518C36.7753 20.5649 36.9788 20.6251 37.1867 20.625H39.3117L36.8414 23.0953Z" fill="white"/>
</svg>
