<svg width="100" height="41" viewBox="0 0 100 41" fill="none" xmlns="http://www.w3.org/2000/svg">
<path d="M8.345 9.22V23.185C8.345 24.3283 8.59 25.2383 9.08 25.915C9.59333 26.5683 10.41 26.895 11.53 26.895C12.65 26.895 13.4783 26.5683 14.015 25.915C14.5517 25.2383 14.82 24.3283 14.82 23.185V9.22H22.555V23.185C22.555 25.5417 22.065 27.56 21.085 29.24C20.105 30.8967 18.7633 32.145 17.06 32.985C15.3567 33.825 13.455 34.245 11.355 34.245C9.255 34.245 7.38833 33.825 5.755 32.985C4.145 32.145 2.885 30.8967 1.975 29.24C1.065 27.5833 0.61 25.565 0.61 23.185V9.22H8.345ZM41.6913 34L37.1413 27.56L33.3613 34H24.5063L32.6613 21.225L24.1562 9.22H33.3613L37.7363 15.415L41.3763 9.22H50.2313L42.2163 21.75L50.8963 34H41.6913ZM66.3548 0.574998L57.0798 40.93H49.6248L58.9348 0.574998H66.3548ZM74.2093 9.22V23.185C74.2093 24.3283 74.4543 25.2383 74.9443 25.915C75.4576 26.5683 76.2743 26.895 77.3943 26.895C78.5143 26.895 79.3426 26.5683 79.8793 25.915C80.4159 25.2383 80.6843 24.3283 80.6843 23.185V9.22H88.4193V23.185C88.4193 25.5417 87.9293 27.56 86.9493 29.24C85.9693 30.8967 84.6276 32.145 82.9243 32.985C81.2209 33.825 79.3193 34.245 77.2193 34.245C75.1193 34.245 73.2526 33.825 71.6193 32.985C70.0093 32.145 68.7493 30.8967 67.8393 29.24C66.9293 27.5833 66.4743 25.565 66.4743 23.185V9.22H74.2093ZM99.5405 9.22V34H91.7705V9.22H99.5405Z" fill="#FFD700"/>
</svg>
