<svg width="75" height="76" viewBox="0 0 75 76" fill="none" xmlns="http://www.w3.org/2000/svg">
<g clip-path="url(#clip0_85_309)">
<path d="M19.7379 65.4466L20.9626 66.0589C25.9563 69.0292 31.6653 70.5817 37.4755 70.5494C55.3622 70.5086 70.0584 55.7776 70.0584 37.891C70.0584 29.2468 66.6252 20.9454 60.5201 14.826C54.4232 8.64336 46.0933 5.15912 37.4123 5.15912C19.6073 5.15912 4.95795 19.8105 4.95795 37.6134C4.95795 37.7543 4.95795 37.893 4.95999 38.0339C5.01362 44.0868 6.70655 50.012 9.85878 55.1795L10.6752 56.4042L7.40939 68.447L19.7379 65.4465V65.4466Z" fill="#00E676"/>
<path d="M64.1534 11.152C57.2032 4.06098 47.6689 0.0828366 37.7408 0.129643H37.6775C17.2314 0.129707 0.406229 16.955 0.406229 37.4011C0.406229 37.4971 0.408275 37.591 0.408275 37.687C0.485288 44.1876 2.16814 50.5683 5.30706 56.2614L0 75.6523L19.7788 70.5494C25.2427 73.5492 31.3854 75.0954 37.6184 75.04C58.1401 74.9277 74.9633 58.0066 74.951 37.4828C75 27.622 71.1116 18.1388 64.1534 11.152ZM37.7408 68.7124C32.2158 68.7412 26.788 67.259 22.0444 64.426L20.8197 63.8136L9.04228 66.8754L12.104 55.2408L11.2876 54.0161C8.25482 49.1192 6.64809 43.4734 6.64801 37.7134C6.64801 20.727 20.6258 6.74913 37.6123 6.74913C54.5987 6.74913 68.5765 20.727 68.5765 37.7134C68.5765 48.4091 63.0348 58.374 53.9476 64.0177C49.1415 67.0964 43.5506 68.7262 37.843 68.7124M55.7847 46.0556L53.5394 45.0351C53.5394 45.0351 50.2735 43.6062 48.2324 42.5857C48.0283 42.5857 47.8242 42.3816 47.62 42.3816C47.1168 42.394 46.625 42.5345 46.1912 42.7898C45.7565 43.0449 45.9871 42.9939 43.1295 46.2597C42.9356 46.6415 42.5376 46.8803 42.109 46.8721H41.9048C41.598 46.8207 41.3136 46.6785 41.0884 46.4639L40.0678 46.0556C37.878 45.1285 35.8729 43.8149 34.1484 42.1775C33.7402 41.7692 33.1279 41.3609 32.7196 40.9527C31.2086 39.5052 29.9036 37.8569 28.8415 36.054L28.6373 35.6458C28.46 35.3963 28.3223 35.1209 28.2291 34.8293C28.1757 34.4757 28.2479 34.1146 28.4332 33.8088C28.619 33.5026 29.2497 32.7881 29.862 32.1758C30.4744 31.5635 30.4744 31.1553 30.8826 30.747C31.0924 30.4556 31.2374 30.1227 31.3078 29.7706C31.3782 29.4185 31.3724 29.0555 31.2908 28.7058C30.3396 26.0647 29.2494 23.4756 28.025 20.9495C27.6968 20.4391 27.1855 20.0738 26.5962 19.9289H24.3509C23.9427 19.9289 23.5345 20.133 23.1262 20.133L22.9221 20.3371C22.5139 20.5412 22.1057 20.9495 21.6974 21.1536C21.2892 21.3577 21.0851 21.9701 20.6769 22.3783C19.2499 24.1815 18.4604 26.4065 18.4316 28.7058C18.4542 30.3232 18.8012 31.9197 19.4521 33.4005L19.6563 34.0128C21.4891 37.9313 24.0523 41.4644 27.2086 44.4227L28.025 45.2392C28.6191 45.7313 29.1658 46.278 29.6579 46.8721C33.8871 50.5523 38.9104 53.2058 44.3338 54.6285C44.9461 54.8326 45.7626 54.8326 46.3749 55.0367H48.4161C49.4829 54.9841 50.5264 54.7058 51.4778 54.2202C51.9778 53.9937 52.4555 53.7202 52.9066 53.4038L53.3148 52.9955C53.7231 52.5873 54.1313 52.3832 54.5395 51.975C54.9385 51.6195 55.2824 51.2068 55.5601 50.7503C55.952 49.8359 56.2275 48.8765 56.3766 47.8927V46.4639C56.1932 46.2991 55.9869 46.1616 55.7642 46.0556" fill="white"/>
</g>
<defs>
<clipPath id="clip0_85_309">
<rect width="75" height="76" fill="white"/>
</clipPath>
</defs>
</svg>
